<?xml version="1.0" encoding="utf-8"?>
<!-- Generator: Adobe Illustrator 19.1.0, SVG Export Plug-In . SVG Version: 6.00 Build 0)  -->
<svg version="1.1" id="Layer_1" xmlns="http://www.w3.org/2000/svg" xmlns:xlink="http://www.w3.org/1999/xlink" x="0px" y="0px"
	 viewBox="20 -2.6 239.2 83.3" style="enable-background:new 20 -2.6 239.2 83.3;" xml:space="preserve">
<style type="text/css">
	.st0{fill:#0081C6;}
	.st1{fill:#F8971D;}
	.st2{fill:#54B948;}
</style>
<g>
	<g>
		<path class="st0" d="M79,31c0,0.6-0.6,1.3-1.5,2.3c-2.8,3.5-9.2,9.7-9.2,25.1c0,8,1.3,11.3,1.3,15c0,1.7-0.3,2.6-1.2,2.6
			c-2,0-5.4-8.4-5.4-18.5c0-21.1,13.3-27,15.4-27C78.9,30.6,79,30.8,79,31z M45.5,30.6c2.1,0,15.4,5.9,15.4,27
			c0,10.1-3.4,18.5-5.4,18.5c-0.9,0-1.2-0.9-1.2-2.6c0-3.7,1.3-7,1.3-15c0-15.4-6.3-21.6-9.2-25.1c-0.8-1-1.5-1.7-1.5-2.3
			C44.9,30.8,45.1,30.6,45.5,30.6z"/>
		<g>
			<path class="st1" d="M57.1,34.8c0,2.8,2.2,5,4.9,5c2.7,0,4.9-2.2,4.9-5s-2.2-5-4.9-5C59.3,29.8,57.1,32,57.1,34.8z"/>
		</g>
		<path class="st2" d="M103.5,66.1c-6.9-4.3-17.4-8.7-32.7-10.1c0,0.2-0.2,1.3-0.2,2.4c0,0.5,0.1,1.2,0.1,1.3
			c14.9,1,25.5,4.1,32.7,6.7c0.1,0.1,0.3,0.1,0.4,0.1s0.1,0,0.1-0.1C103.9,66.4,103.8,66.3,103.5,66.1z M69.9,9.2
			c-1.2-1.1-2.1-2.6-1.4-5.1c0.7-2.3,2.5-4.2,4.4-4.7c1.3,1.5,1.7,4.1,1,6.4C73.1,8.3,71.4,9,69.9,9.2z M81.1,18.6
			c-0.4-1.5-0.4-3.2,1.5-4.8c1.8-1.5,4.2-2.1,6-1.6c0.3,1.9-0.7,4.2-2.5,5.7C84.2,19.5,82.5,19.2,81.1,18.6z M81.5,32.7
			c0.5-1.4,1.5-2.8,3.9-3.1c2.3-0.2,4.6,0.6,5.8,2.1c-0.8,1.7-2.9,3-5.2,3.2C83.5,35.1,82.2,34,81.5,32.7z M77.4,37.8
			c0.8-1.1,2-2,4.1-1.6c2,0.4,3.8,1.7,4.4,3.3c-1.1,1.2-3.3,1.8-5.3,1.4C78.5,40.4,77.7,39.1,77.4,37.8z M65.2,24.5
			c-1.4-1.3-2.6-3.2-1.7-6.1c0.9-2.8,3-5.1,5.3-5.7c1.5,1.8,2,4.9,1.2,7.7C69.1,23.3,67,24.2,65.2,24.5z M70.5,27.6
			C70,26,70.1,24,72.2,22.2c2-1.7,4.8-2.4,6.8-1.8c0.3,2.1-0.8,4.7-2.8,6.4C74,28.6,72,28.3,70.5,27.6z M74.1,16.2
			c-1-1.6-1.6-3.8,0.1-6.5c1.6-2.5,4.4-4.2,6.8-4.1c1,2.2,0.6,5.4-1,7.9C78.2,16.1,76,16.4,74.1,16.2z M81.3,26.1
			c0-1.8,0.6-3.8,3.3-5c2.5-1.1,5.5-1.1,7.4,0.2c-0.3,2.2-2.2,4.5-4.8,5.7C84.6,28.1,82.6,27.2,81.3,26.1z M58,5.5
			c0-3.4,1.6-6.6,4-8.1c2.3,1.5,3.9,4.7,3.9,8.1c0,3.6-1.9,5.3-3.9,6.2C60,10.8,58,9.1,58,5.5z M20,66.5c0,0.1,0,0.1,0.1,0.1
			s0.2-0.1,0.4-0.1c7.2-2.6,17.8-5.7,32.7-6.7c0-0.1,0.1-0.8,0.1-1.3c0-1.1-0.1-2.2-0.2-2.4c-15.3,1.4-25.8,5.8-32.7,10
			C20.1,66.3,20,66.4,20,66.5z M50.1,5.8c-0.7-2.3-0.3-4.9,1-6.4c1.9,0.5,3.7,2.4,4.4,4.8c0.8,2.4-0.2,4-1.4,5.1
			C52.5,9,50.8,8.3,50.1,5.8z M37.8,17.9c-1.8-1.5-2.8-3.8-2.5-5.7c1.8-0.6,4.3,0,6,1.6c1.9,1.6,1.9,3.4,1.5,4.8
			C41.5,19.2,39.7,19.5,37.8,17.9z M38,34.9c-2.3-0.2-4.4-1.6-5.2-3.2c1.2-1.5,3.5-2.3,5.8-2.1c2.4,0.3,3.4,1.7,3.9,3.1
			C41.7,34,40.4,35.1,38,34.9z M43.3,40.8c-2,0.4-4.1-0.2-5.3-1.4c0.6-1.5,2.4-2.9,4.4-3.3c2.1-0.4,3.3,0.5,4.1,1.6
			C46.2,39.1,45.4,40.4,43.3,40.8z M54,20.4c-0.9-2.8-0.4-5.9,1.2-7.7c2.3,0.6,4.4,2.9,5.3,5.7c0.9,2.9-0.3,4.8-1.7,6.1
			C56.9,24.2,54.9,23.3,54,20.4z M47.8,26.8c-2-1.7-3.1-4.3-2.8-6.4c2-0.6,4.8,0.1,6.8,1.8c2.1,1.8,2.1,3.8,1.7,5.4
			C51.9,28.3,49.9,28.6,47.8,26.8z M44,13.5c-1.6-2.5-2-5.7-1-7.9c2.4,0,5.2,1.6,6.8,4.1c1.7,2.6,1.1,4.8,0.1,6.5
			C48,16.4,45.7,16.1,44,13.5z M36.7,26.9c-2.5-1.1-4.4-3.5-4.8-5.7c1.9-1.2,4.9-1.3,7.4-0.2c2.7,1.2,3.3,3.2,3.3,5
			C41.3,27.2,39.4,28.1,36.7,26.9z"/>
	</g>
	<path class="st0" d="M189.9,56.1V36.6c0-2.6-0.2-7.6-0.3-8.8h6.1l0.3,4h0.1c0.7-1.1,3-4.6,8.3-4.6c6.4,0,9.9,4.7,9.9,10.5v18.4
		h-6.7V39c0-3.6-2-6.3-5.4-6.3c-3.6,0-5.4,2.9-5.4,6.3v17.1C196.8,56.1,189.9,56.1,189.9,56.1z M150.5,27.9h-6.8v28.2h6.8V27.9z
		 M246.7,56.1c-0.2-1.6-0.9-5.7-0.9-9.3V28.4c-1-0.3-4.9-1.3-9.3-1.3c-11.4,0-16.4,7.7-16.4,16c0,7.6,3.8,13.6,11.2,13.6
		c5.4,0,7.8-3.5,8.7-5.3h0.2c0.1,0.9,0.3,3.9,0.4,4.7C240.6,56.1,246.7,56.1,246.7,56.1z M239.1,42.1c0,6.5-2.5,9.2-6.2,9.2
		s-5.8-3.1-5.8-8.6c0-5.6,3.2-10.3,9.2-10.3c1.2,0,2.1,0.1,2.8,0.3V42.1z M137,49.2c-1.8,0.9-4.8,1.4-7.6,1.4
		c-7.8,0-13.5-5.5-13.5-14c0-8.4,5.7-14,13.5-14c3.9,0,6.6,0.9,7.6,1.4v-6c-1.7-0.6-4.4-1.3-8.3-1.3c-12,0-20.1,8.3-20.1,19.9
		c0,10.9,7.4,19.9,20.1,19.9c3.7,0,6.5-0.6,8.3-1.3V49.2z M175.9,52.7v2.1c0,5.8-3.6,8-8,8c-4,0-6.9-1.2-7.8-1.5V67
		c0.8,0.2,4,1.2,8.6,1.2c8.2,0,13.6-3.4,13.6-14.9V28.4c-1-0.3-4.9-1.3-9.3-1.3c-11.4,0-16.4,7.7-16.4,16c0,7.6,3.8,13.6,11.2,13.6
		c4.9,0,7.2-2.9,7.9-4C175.7,52.7,175.9,52.7,175.9,52.7z M175.5,42.1c0,6.5-2.5,9.2-6.2,9.2s-5.8-3.1-5.8-8.6
		c0-5.6,3.2-10.3,9.2-10.3c1.2,0,2.1,0.1,2.8,0.3V42.1z M142.9,20.5c0,2.3,1.9,4.1,4.2,4.1c2.3,0,4.2-1.8,4.2-4.1s-1.9-4.1-4.2-4.1
		S142.9,18.2,142.9,20.5z"/>
</g>
<g>
	<path class="st0" d="M259.2,55.1c-0.7,0.7-1.6,1.1-2.7,1.1c-1,0-1.9-0.4-2.7-1.1c-0.7-0.7-1.1-1.6-1.1-2.7c0-1,0.4-1.9,1.1-2.6
		c0.7-0.7,1.6-1.1,2.6-1.1c1,0,1.9,0.4,2.7,1.1c0.7,0.7,1.1,1.6,1.1,2.6C260.3,53.4,259.9,54.3,259.2,55.1z M254.2,50.1
		c-0.6,0.6-0.9,1.4-0.9,2.3c0,0.9,0.3,1.7,0.9,2.3c0.6,0.6,1.4,1,2.3,1c0.9,0,1.7-0.3,2.3-1c0.6-0.6,0.9-1.4,0.9-2.3
		c0-0.9-0.3-1.7-0.9-2.3c-0.6-0.6-1.4-1-2.3-1C255.6,49.2,254.9,49.5,254.2,50.1z M256.4,50.3c0.5,0,0.9,0.1,1.1,0.1
		c0.4,0.2,0.6,0.5,0.6,1c0,0.4-0.1,0.6-0.4,0.8c-0.1,0.1-0.3,0.2-0.6,0.2c0.3,0.1,0.6,0.2,0.7,0.4c0.1,0.2,0.2,0.4,0.2,0.6v0.3
		c0,0.1,0,0.2,0,0.3s0,0.2,0,0.2v0.1h-0.7l0,0l0,0v-0.1v-0.3c0-0.5-0.1-0.8-0.4-0.9c-0.2-0.1-0.4-0.1-0.8-0.1h-0.6v1.5H255v-4.1
		H256.4z M257.2,51c-0.2-0.1-0.5-0.2-0.9-0.2h-0.6v1.5h0.7c0.3,0,0.5,0,0.7-0.1c0.3-0.1,0.4-0.3,0.4-0.6S257.4,51.1,257.2,51z"/>
</g>
</svg>
