<?xml version="1.0" encoding="utf-8"?>
<!-- Generator: Adobe Illustrator 18.0.0, SVG Export Plug-In . SVG Version: 6.00 Build 0)  -->
<!DOCTYPE svg PUBLIC "-//W3C//DTD SVG 1.1//EN" "http://www.w3.org/Graphics/SVG/1.1/DTD/svg11.dtd">
<svg version="1.1" id="Layer_1" xmlns="http://www.w3.org/2000/svg" xmlns:xlink="http://www.w3.org/1999/xlink" x="0px" y="0px"
	 viewBox="0 0 94 59" enable-background="new 0 0 94 59" xml:space="preserve">
<g>
	<path fill="#010101" d="M4.5,53.8L4.5,53.8l0,1.2H3V43.6h1.4v2.9c0,0.6,0,1.2,0,1.6h0c0.5-0.9,1.4-1.5,2.6-1.5
		c2.1,0,3.5,1.6,3.5,4.3c0,2.6-1.3,4.3-3.5,4.3C6,55.2,5,54.7,4.5,53.8z M9.1,50.9c0-1.8-0.7-3.1-2.2-3.1c-1.7,0-2.5,1.4-2.5,3.1
		c0,1.8,0.8,3.1,2.5,3.1C8.4,54,9.1,52.7,9.1,50.9z M11.8,57.7v-1.2h0.1c0.2,0.1,0.5,0.2,0.9,0.2c0.6,0,0.9-0.2,1.2-1
		c0,0,0.3-0.9,0.3-1l-3.1-7.8h1.5l1.7,4.5c0.3,0.9,0.7,2.2,0.7,2.2h0c0,0,0.4-1.3,0.7-2.2l1.6-4.5h1.5l-3.5,8.9
		c-0.7,1.7-1.3,2.1-2.4,2.1C12.5,57.8,12,57.7,11.8,57.7z M22.8,46.8h1.5l1.4,4.4c0.4,1.1,0.7,2.6,0.7,2.6h0c0,0,0.4-1.5,0.7-2.6
		l1.5-4.4h1.5L27.2,55h-1.6L22.8,46.8z M30.6,50.9c0-2.4,1.6-4.3,3.9-4.3c1.2,0,2.2,0.5,2.8,1.3c0.7,0.8,1,2,1,3.4h-6.3
		c0.1,1.6,1,2.8,2.6,2.8c1.1,0,1.9-0.5,2.2-1.4h1.4c-0.4,1.5-1.7,2.6-3.6,2.6C32.1,55.2,30.6,53.3,30.6,50.9z M32.1,50.2h4.7
		c-0.1-1.6-0.9-2.5-2.3-2.5C33,47.7,32.3,48.8,32.1,50.2z M41.3,48.3L41.3,48.3c0.5-0.9,1.4-1.6,2.5-1.6c0.2,0,0.4,0,0.5,0.1v1.3h0
		C44,48.1,43.9,48,43.6,48c-1.3,0-2.3,0.9-2.3,2.5V55h-1.4v-8.2h1.4V48.3z M45.7,43.6h1.5v1.6h-1.5V43.6z M45.7,46.8h1.4V55h-1.4
		V46.8z M48.8,53.9l3.7-4.8c0.3-0.4,1-1.1,1-1.1v0c0,0-1,0-1.5,0h-2.8v-1.2h6.1v0.9l-3.7,4.9c-0.4,0.4-1,1.2-1,1.2v0c0,0,1,0,1.6,0
		h3.3V55h-6.6V53.9z M56.2,50.9c0-2.4,1.5-4.3,4-4.3c2.5,0,4,1.9,4,4.3c0,2.4-1.5,4.3-4,4.3C57.8,55.2,56.2,53.3,56.2,50.9z
		 M62.7,50.9c0-1.8-0.9-3.2-2.5-3.2c-1.7,0-2.5,1.4-2.5,3.2c0,1.8,0.9,3.2,2.5,3.2C61.9,54,62.7,52.7,62.7,50.9z M67.1,48L67.1,48
		c0.6-0.8,1.4-1.4,2.6-1.4c1.7,0,2.8,1,2.8,2.7V55h-1.4v-5.5c0-1.1-0.7-1.6-1.8-1.6c-1.3,0-2.2,0.9-2.2,2.2v5h-1.4v-8.2h1.4V48z"/>
	<g>
		<path fill="#010101" d="M64.4,38c6.2,0,10.8-2.8,10.8-8c0-6.1-4.9-7.2-9.1-7.9c-3-0.5-5.8-0.8-5.8-2.5c0-1.5,1.5-2.3,3.4-2.3
			c2.2,0,3.7,0.7,3.9,2.9h6.9c-0.4-4.8-4-7.7-10.8-7.7c-5.6,0-10.3,2.6-10.3,7.7c0,5.6,4.3,6.8,8.6,7.5c3.2,0.6,6.1,0.8,6.1,2.9
			c0,1.5-1.5,2.4-3.8,2.4c-2.5,0-4.2-1.2-4.5-3.6h-7.1C53,34.8,57.4,38,64.4,38z M17.3,11.2h7.4V4.6h-7.4V11.2z M39.2,32.6
			c-3.5,0-5.3-2.9-5.3-7.3c0-4.5,1.8-7.3,5.3-7.3c3.5,0,5.4,2.9,5.4,7.3C44.6,29.7,42.6,32.6,39.2,32.6z M39.2,38
			C46.9,38,52,32.5,52,25.3c0-7.2-5.1-12.7-12.8-12.7c-7.6,0-12.8,5.5-12.8,12.7C26.4,32.5,31.6,38,39.2,38z M17.3,37.2h7.4v-24
			h-7.4V37.2z M3,37.2h7.3V18.5h4.8v-5.3h-4.8v-0.7c0-2.1,1.8-2.4,4.8-2.3V4.7C11.2,4.3,7,4.7,5,6.8C3.7,8,3,9.8,3,11.9v1.3H0.2v5.3
			H3V37.2z"/>
		<polygon fill="#CC2027" points="90.1,1.2 81.1,20.6 77.7,13.2 74,13.2 79.6,25.3 82.6,25.3 93.8,1.2 		"/>
	</g>
</g>
</svg>
