<?xml version="1.0" encoding="utf-8"?>
<!-- Generator: Adobe Illustrator 18.1.1, SVG Export Plug-In . SVG Version: 6.00 Build 0)  -->
<svg version="1.1" id="square2219" xmlns="http://www.w3.org/2000/svg" xmlns:xlink="http://www.w3.org/1999/xlink" x="0px" y="0px"
	 viewBox="65.8 18.5 67.7 56.7" enable-background="new 65.8 18.5 67.7 56.7" xml:space="preserve">
<path fill="#007A3E" d="M76.1,27.1c0-0.6-0.5-1.1-1.2-1.1c-0.2,0-0.5,0.1-0.7,0.2l-3.1-2.8L71,23.5l2.9,3.1
	c-0.1,0.1-0.1,0.3-0.1,0.5c0,0.6,0.5,1.1,1.2,1.1c0.2,0,0.4,0,0.6-0.1l0.6,0.6l0.4-0.4l-0.6-0.5C76,27.6,76.1,27.4,76.1,27.1z
	 M132.4,48.2c-0.1-1.7-0.8-3.3-1.9-4.7c-1.4-1.7-3.4-3-5.7-3.8c-2.3-0.8-4.9-0.8-7.3-0.3c-1.7,0.4-3.6,1.2-4.8,2.5
	c0.3,0.5,0.6,1,0.8,1.5c1.1-1.2,2.8-2,4.4-2.4c4.2-1,8.9,0.5,11.3,3.5c1.9,2.5,2.1,5.5,0.4,8.7c-1.1,2-2.6,3.8-4.2,5.5l-0.4-0.4
	l-2.7,2.7c-2.2,0-5.9,0.5-8.2,2.8c-2.5,2.5-2.8,6.4-2.8,8.6c0,0.8,0.8,1.6,1.7,1.7c2.2,0,6.1-0.3,8.6-2.8c2.3-2.3,2.8-6,2.8-8.2
	l0.4-0.4l1.8,1.8c0,0,0,0.1,0.1,0.1c0.2,0.2,0.8,0,1.3-0.5c0.5-0.5,0.8-1.1,0.5-1.3l-0.1,0l-1.8-1.8l0.4-0.4l-0.5-0.5
	c1.7-1.8,3.3-3.7,4.5-6C132.2,52,132.6,50.1,132.4,48.2z M113.3,54.2c1.2-1.9,1.1-4.5,0.6-6.6c-0.2-1-0.6-2.1-1-3.1
	c-0.2-0.6-0.5-1.2-0.8-1.8c-1.2-2.1-2.7-4.1-4.2-5.9c-1.7-1.8-3.4-3.7-4.9-5.6c-0.1-0.1-0.2-0.2-0.2-0.3L84.2,44.8
	c0.7,0.9,1.5,1.8,2.3,2.6c0.2,0.2,0.4,0.5,0.7,0.8c1.4,1.5,2.6,3,3.6,4.3c2.3,3.1,8.3,12.8,2.3,15.4c-1.5,0.7-3.2,0.1-4.5-0.6
	c-1.1-0.6-2.1-1.3-3-2.2c-2.2-2.1-3.9-5.1-4.2-8.2c-0.1-1,0.1-2,0.5-2.9c1.3-3,5.1-1.8,7.2-0.4c1.1,0.7,2.1,1.7,3,2.8
	c0,0,0.1,0,0.2,0c0,0,0-0.1,0-0.2c-0.6-1-1.3-2.2-2.2-3.3c-0.8-1.2-1.8-2.3-2.9-3.6l0,0l-0.1,0c-0.2-0.2-0.4-0.5-0.7-0.7l-4.3,3.2
	c-1.1,0.8-1.7,2-1.9,3.5c-0.3,2.7,0.8,5.9,2.9,8.8c1,1.5,2.3,2.7,3.8,3.6c1,0.8,2.2,1.2,3.2,1.5c-0.3,0.2-0.7,0.3-1,0.4
	c-3,1.4-6,2.6-9.2,2.6c-0.6,0-1.2-0.1-1.8-0.1c-2.8-0.4-5.2-1.8-6.8-4.1c-1.4-1.9-2-4.2-1.6-6.7c0.5-3.1,1.5-4.3,2.8-6
	c0.7-0.9,1.5-1.9,2.2-3.3c1.7-3,2.6-6.6,2.6-10.4v-1c0-0.6,0-0.6,0-0.7c0,0,0,0,0-2.3c0.9-0.1,1.7-0.8,1.7-1.8c0-0.5-0.2-1-0.7-1.3
	c4-0.2,7.2-3.4,7.2-7.4c0-4.1-3.3-7.4-7.4-7.4H75c-2,0-3.8,0.8-5.2,2.1s-2.2,3.2-2.2,5.2c0,4,3.1,7.2,7,7.4
	c-0.4,0.3-0.7,0.8-0.7,1.3c0,1,0.8,1.8,1.9,1.8c0,2.2,0,2.3,0,2.3s0,0,0,0.7v1c0,3.5-0.8,6.8-2.4,9.6c-0.8,1.3-1.4,2.2-2.1,3.1
	c-1.3,1.8-2.5,3.2-3,6.7c-0.5,2.8,0.2,5.5,1.8,7.9c1.8,2.6,4.7,4.2,7.9,4.7c0.6,0.1,1.3,0.2,1.9,0.2c1.8,0,3.7-0.3,5.7-1
	c2.2-0.7,4.2-1.7,6.2-2.7c0.2-0.1,0.5-0.2,0.7-0.3c0.6-0.2,1.1-0.6,1.6-0.8l0.1-0.1l7.1-5.2c2.9-2.2,6-4.3,7.2-5.3
	C110.2,57.1,112.2,56,113.3,54.2z M75.7,33.3v-0.2c0-0.4-0.3-0.7-0.7-0.7h-0.1c-0.4,0-0.7,0.3-0.7,0.7v0.2c-2.8-0.3-5.1-2.5-5.4-5.4
	H69c0.4,0,0.7-0.3,0.7-0.7v0c0-0.4-0.3-0.7-0.7-0.7h-0.2c0.3-2.9,2.5-5.1,5.4-5.4v0.2c0,0.4,0.3,0.7,0.7,0.7H75
	c0.4,0,0.7-0.3,0.7-0.7V21c2.8,0.4,5.1,2.6,5.4,5.5h-0.2c-0.4,0-0.7,0.3-0.7,0.7v0c0,0.4,0.3,0.7,0.7,0.7h0.2
	C80.7,30.8,78.5,33,75.7,33.3z"/>
</svg>
